<svg version="1.2" baseProfile="tiny-ps" xmlns="http://www.w3.org/2000/svg" viewBox="0 0 64 64" width="64" height="64"><title>github-svg</title><style>tspan { white-space:pre }.shp0 { fill: #ffffff } </style><path class="shp0" d="M32 0.79C14.32 0.79 0 15.12 0 32.79C0 46.93 9.17 58.93 21.88 63.15C23.48 63.45 24.07 62.46 24.07 61.61C24.07 60.85 24.04 58.84 24.03 56.17C15.13 58.1 13.25 51.88 13.25 51.88C11.79 48.19 9.69 47.2 9.69 47.2C6.79 45.22 9.91 45.26 9.91 45.26C13.13 45.48 14.81 48.55 14.81 48.55C17.67 53.45 22.3 52.03 24.13 51.21C24.42 49.14 25.25 47.73 26.16 46.93C19.05 46.13 11.58 43.38 11.58 31.12C11.58 27.63 12.82 24.77 14.88 22.53C14.52 21.73 13.44 18.47 15.16 14.06C15.16 14.06 17.84 13.21 23.96 17.34C26.52 16.63 29.24 16.28 31.96 16.26C34.68 16.28 37.4 16.63 39.96 17.34C46.04 13.21 48.72 14.06 48.72 14.06C50.44 18.47 49.36 21.73 49.04 22.53C51.08 24.77 52.32 27.63 52.32 31.12C52.32 43.41 44.84 46.12 37.72 46.91C38.84 47.87 39.88 49.83 39.88 52.83C39.88 57.11 39.84 60.55 39.84 61.59C39.84 62.43 40.4 63.43 42.04 63.11C54.84 58.91 64 46.91 64 32.79C64 15.12 49.67 0.79 32 0.79" /></svg>