<svg version="1.2" baseProfile="tiny-ps" xmlns="http://www.w3.org/2000/svg" viewBox="0 0 64 64" width="64" height="64"><title>gmail-#EA4335</title><style>tspan { white-space:pre }.shp0 { fill: #ffffff } </style><path class="shp0" d="M64 14.55L64 51.64C64 54.05 62.05 56.01 59.64 56.01L49.45 56.01L49.45 31.28L32 44.37L14.55 31.28L14.55 56.01L4.36 56.01C3.79 56.01 3.22 55.9 2.69 55.68C2.16 55.46 1.68 55.13 1.28 54.73C0.87 54.32 0.55 53.84 0.33 53.31C0.11 52.78 0 52.22 0 51.64L0 14.55C0 9.16 6.16 6.08 10.47 9.31L14.55 12.37L32 25.46L49.45 12.37L53.53 9.31C57.84 6.08 64 9.16 64 14.55Z" /></svg>