<svg version="1.2" baseProfile="tiny-ps" xmlns="http://www.w3.org/2000/svg" viewBox="0 0 64 64" width="64" height="64"><title>linkedin-#0A66C2</title><style>tspan { white-space:pre }.shp0 { fill: #ffffff } </style><path fill-rule="evenodd" class="shp0" d="M59.26 0C61.87 0 64 2.06 64 4.61L64 59.39C64 61.94 61.87 64 59.26 64L4.72 64C2.11 64 0 61.94 0 59.39L0 4.61C0 2.06 2.11 0 4.72 0L59.26 0ZM19.74 14.31C19.74 11.28 17.27 8.81 14.23 8.81C11.18 8.81 8.73 11.28 8.73 14.31C8.73 17.35 11.18 19.82 14.23 19.82C17.27 19.82 19.74 17.35 19.74 14.31ZM18.98 24L9.48 24L9.48 54.54L18.98 54.54L18.98 24ZM54.53 54.54L54.53 37.78C54.53 29.55 52.75 23.23 43.15 23.23C38.53 23.23 35.43 25.76 34.16 28.16L34.04 28.16L34.04 24L24.94 24L24.94 54.54L34.41 54.54L34.41 39.43C34.41 35.44 35.17 31.59 40.11 31.59C44.98 31.59 45.05 36.15 45.05 39.69L45.05 54.54L54.53 54.54Z" /></svg>