<svg version="1.2" baseProfile="tiny-ps" xmlns="http://www.w3.org/2000/svg" viewBox="0 0 64 64" width="64" height="64"><title>twitter-svg</title><style>tspan { white-space:pre }.shp0 { fill: #ffffff } </style><path class="shp0" d="M63.87 12.19C63.28 12.45 62.67 12.69 62.05 12.91C61.44 13.13 60.81 13.32 60.18 13.5C59.55 13.67 58.92 13.82 58.28 13.95C57.64 14.07 56.99 14.17 56.34 14.25C57.02 13.85 57.66 13.38 58.25 12.86C58.85 12.34 59.39 11.76 59.88 11.14C60.37 10.53 60.81 9.86 61.18 9.17C61.56 8.47 61.87 7.74 62.11 6.99C59.57 8.47 56.76 9.55 53.77 10.15C51.8 8.04 49.18 6.64 46.33 6.17C43.48 5.69 40.55 6.18 38 7.54C35.45 8.9 33.43 11.07 32.23 13.7C31.04 16.33 30.75 19.29 31.41 22.1C20.51 21.59 10.85 16.35 4.37 8.43C4.08 8.93 3.82 9.45 3.6 9.98C3.38 10.51 3.19 11.05 3.04 11.61C2.89 12.17 2.78 12.74 2.7 13.31C2.63 13.88 2.59 14.46 2.6 15.03C2.6 19.59 4.92 23.6 8.43 25.95C7.91 25.94 7.4 25.89 6.88 25.81C6.37 25.73 5.86 25.63 5.36 25.49C4.86 25.35 4.37 25.18 3.89 24.99C3.41 24.79 2.94 24.56 2.49 24.31L2.49 24.47C2.49 25.98 2.75 27.47 3.25 28.89C3.76 30.3 4.5 31.62 5.45 32.79C6.41 33.95 7.55 34.94 8.84 35.72C10.13 36.5 11.54 37.05 13.01 37.34C12.53 37.47 12.05 37.57 11.56 37.65C11.07 37.72 10.57 37.77 10.08 37.79C9.58 37.81 9.08 37.8 8.59 37.76C8.09 37.73 7.6 37.66 7.11 37.57C7.53 38.87 8.15 40.09 8.95 41.2C9.74 42.3 10.7 43.28 11.79 44.09C12.89 44.9 14.1 45.54 15.39 45.98C16.68 46.42 18.03 46.66 19.39 46.68C18.24 47.59 17.02 48.39 15.73 49.09C14.45 49.79 13.11 50.38 11.73 50.86C10.35 51.33 8.93 51.7 7.48 51.94C6.04 52.18 4.58 52.3 3.12 52.3C2.08 52.3 1.04 52.23 0 52.12C1.49 53.07 3.05 53.92 4.67 54.66C6.28 55.39 7.95 56.01 9.65 56.51C11.36 57.01 13.09 57.38 14.85 57.63C16.61 57.88 18.38 58.01 20.15 58.01C44.29 58.01 57.48 38.02 57.48 20.71C57.48 20.15 57.48 19.59 57.44 19.03C58.08 18.57 58.7 18.08 59.3 17.56C59.9 17.05 60.48 16.5 61.03 15.93C61.57 15.36 62.1 14.77 62.6 14.15C63.09 13.54 63.56 12.9 64 12.24L63.87 12.19Z" /></svg>