<svg version="1.2" baseProfile="tiny-ps" xmlns="http://www.w3.org/2000/svg" viewBox="0 0 64 64" width="64" height="64"><title>cog-svg</title><style>tspan { white-space:pre }.shp0 { fill: #ffffff } </style><path fill-rule="evenodd" class="shp0" d="M57.44 39.01C57.95 39.41 58.08 40.13 57.76 40.72L52.43 49.95C52.11 50.53 51.39 50.75 50.8 50.53L44.16 47.84C42.77 48.91 41.33 49.79 39.65 50.48L38.67 57.55C38.56 58.19 38 58.67 37.33 58.67L26.67 58.67C26 58.67 25.44 58.19 25.33 57.55L24.35 50.48C22.67 49.81 21.23 48.91 19.84 47.84L13.2 50.53C12.61 50.75 11.89 50.53 11.57 49.95L6.24 40.72C5.89 40.13 6.05 39.41 6.56 39.01L12.19 34.59C12.08 33.73 12 32.88 12 32C12 31.12 12.08 30.24 12.19 29.33L6.56 24.99C6.05 24.59 5.89 23.87 6.24 23.28L11.57 14.05C11.89 13.47 12.61 13.23 13.2 13.47L19.84 16.13C21.23 15.09 22.67 14.19 24.35 13.52L25.33 6.45C25.44 5.81 26 5.33 26.67 5.33L37.33 5.33C38 5.33 38.56 5.81 38.67 6.45L39.65 13.52C41.33 14.19 42.77 15.09 44.16 16.13L50.8 13.47C51.39 13.23 52.11 13.47 52.43 14.05L57.76 23.28C58.08 23.87 57.95 24.59 57.44 24.99L51.81 29.33C51.92 30.24 52 31.12 52 32C52 32.88 51.92 33.73 51.81 34.59L57.44 39.01ZM35.57 40.62C36.7 40.15 37.73 39.47 38.6 38.6C39.47 37.73 40.15 36.7 40.62 35.57C41.09 34.44 41.33 33.23 41.33 32C41.33 30.77 41.09 29.56 40.62 28.43C40.15 27.3 39.47 26.27 38.6 25.4C37.73 24.53 36.7 23.85 35.57 23.38C34.44 22.91 33.23 22.67 32 22.67C30.77 22.67 29.56 22.91 28.43 23.38C27.3 23.85 26.27 24.53 25.4 25.4C24.53 26.27 23.85 27.3 23.38 28.43C22.91 29.56 22.67 30.77 22.67 32C22.67 33.23 22.91 34.44 23.38 35.57C23.85 36.7 24.53 37.73 25.4 38.6C26.27 39.47 27.3 40.15 28.43 40.62C29.56 41.09 30.77 41.33 32 41.33C33.23 41.33 34.44 41.09 35.57 40.62Z" /></svg>