<svg version="1.2" baseProfile="tiny-ps" xmlns="http://www.w3.org/2000/svg" viewBox="0 0 64 64" width="64" height="64"><title>email-svg</title><style>tspan { white-space:pre }.shp0 { fill: #ffffff } </style><path fill-rule="evenodd" class="shp0" d="M58.67 16L58.67 48C58.67 48.7 58.53 49.39 58.26 50.04C57.99 50.69 57.6 51.28 57.1 51.77C56.61 52.27 56.02 52.66 55.37 52.93C54.73 53.2 54.03 53.33 53.33 53.33L10.67 53.33C9.97 53.33 9.27 53.2 8.63 52.93C7.98 52.66 7.39 52.27 6.9 51.77C6.4 51.28 6.01 50.69 5.74 50.04C5.47 49.39 5.33 48.7 5.33 48L5.33 16C5.33 13.04 7.71 10.67 10.67 10.67L53.33 10.67C56.27 10.67 58.67 13.04 58.67 16ZM53.33 16L32 29.33L10.67 16L10.67 21.33L32 34.67L53.33 21.33L53.33 16Z" /></svg>