<svg version="1.2" baseProfile="tiny-ps" xmlns="http://www.w3.org/2000/svg" viewBox="0 0 64 64" width="64" height="64"><title>format-color-fill-svg</title><style>tspan { white-space:pre }.shp0 { fill: #ffffff } </style><path fill-rule="evenodd" class="shp0" d="M56 40C56 40.7 55.86 41.39 55.59 42.04C55.33 42.69 54.93 43.28 54.44 43.77C53.94 44.27 53.35 44.66 52.71 44.93C52.06 45.2 51.37 45.33 50.67 45.33C49.97 45.33 49.27 45.2 48.63 44.93C47.98 44.66 47.39 44.27 46.9 43.77C46.4 43.28 46.01 42.69 45.74 42.04C45.47 41.39 45.33 40.7 45.33 40C45.33 36.45 50.67 30.67 50.67 30.67C50.67 30.67 56 36.45 56 40ZM44.16 29.49L29.49 44.16C28.72 44.93 27.68 45.33 26.67 45.33C25.65 45.33 24.61 44.93 23.84 44.16L9.17 29.49C7.6 27.92 7.6 25.33 9.17 23.84L22.91 10.11L16.56 3.76L20.32 0L44.16 23.84C45.73 25.33 45.73 27.92 44.16 29.49ZM39.44 26.67L26.67 13.89L13.89 26.67L39.44 26.67Z" /></svg>