<svg version="1.2" baseProfile="tiny-ps" xmlns="http://www.w3.org/2000/svg" viewBox="0 0 64 64" width="64" height="64"><title>heart-outline-svg</title><style>tspan { white-space:pre }.shp0 { fill: #ffffff } </style><path fill-rule="evenodd" class="shp0" d="M58.67 22.67C58.67 32.72 49.6 40.96 35.87 53.41L32 56.93L28.13 53.41C14.4 40.96 5.33 32.72 5.33 22.67C5.33 14.43 11.79 8 20 8C24.64 8 29.09 10.16 32 13.55C34.91 10.16 39.36 8 44 8C52.21 8 58.67 14.43 58.67 22.67ZM53.33 22.67C53.33 17.33 49.33 13.33 44 13.33C39.89 13.33 35.89 16 34.48 19.63L29.52 19.63C28.11 16 24.11 13.33 20 13.33C14.67 13.33 10.67 17.33 10.67 22.67C10.67 30.37 19.04 37.97 31.71 49.47L32 49.73L32.27 49.47C44.96 37.97 53.33 30.37 53.33 22.67Z" /></svg>