<svg version="1.2" baseProfile="tiny-ps" xmlns="http://www.w3.org/2000/svg" viewBox="0 0 64 64" width="64" height="64"><title>power-svg</title><style>tspan { white-space:pre }.shp0 { fill: #ffffff } </style><path class="shp0" d="M44.16 14.51L40.29 18.37C44.91 21.17 48 26.21 48 32C48 34.1 47.59 36.18 46.78 38.12C45.98 40.06 44.8 41.83 43.31 43.31C41.83 44.8 40.06 45.98 38.12 46.78C36.18 47.59 34.1 48 32 48C29.9 48 27.82 47.59 25.88 46.78C23.94 45.98 22.17 44.8 20.69 43.31C19.2 41.83 18.02 40.06 17.22 38.12C16.41 36.18 16 34.1 16 32C16 26.21 19.09 21.17 23.68 18.35L19.84 14.51C14.29 18.35 10.67 24.75 10.67 32C10.67 34.8 11.22 37.58 12.29 40.16C13.36 42.75 14.93 45.1 16.92 47.08C18.9 49.07 21.25 50.64 23.84 51.71C26.42 52.78 29.2 53.33 32 53.33C34.8 53.33 37.58 52.78 40.16 51.71C42.75 50.64 45.1 49.07 47.08 47.08C49.07 45.1 50.64 42.75 51.71 40.16C52.78 37.58 53.33 34.8 53.33 32C53.33 24.75 49.71 18.35 44.16 14.51ZM34.67 8L29.33 8L29.33 34.67L34.67 34.67" /></svg>