<svg version="1.2" baseProfile="tiny-ps" xmlns="http://www.w3.org/2000/svg" viewBox="0 0 64 64" width="64" height="64"><title>restart-svg</title><style>tspan { white-space:pre }.shp0 { fill: #ffffff } </style><path class="shp0" d="M32 10.67C37.6 10.67 42.93 12.8 46.93 16.8C55.2 25.07 55.2 38.67 46.93 46.93C42.13 52 35.47 53.87 29.07 53.07L30.4 47.73C34.93 48.27 39.73 46.67 43.2 43.2C49.33 37.07 49.33 26.93 43.2 20.53C40.27 17.6 36 16 32 16L32 28.27L18.67 14.93L32 1.6L32 10.67ZM16.8 46.93C9.87 40 8.8 29.33 13.6 21.07L17.6 25.07C14.67 30.93 15.73 38.4 20.8 43.2C22.13 44.53 23.73 45.6 25.6 46.4L24 51.73C21.33 50.67 18.93 49.07 16.8 46.93Z" /></svg>