<svg version="1.2" baseProfile="tiny-ps" xmlns="http://www.w3.org/2000/svg" viewBox="0 0 64 64" width="64" height="64"><title>web-svg</title><style>tspan { white-space:pre }.shp0 { fill: #ffffff } </style><path fill-rule="evenodd" class="shp0" d="M32 5.33C35.5 5.33 38.97 6.02 42.2 7.36C45.44 8.7 48.38 10.67 50.86 13.14C53.33 15.62 55.3 18.56 56.64 21.8C57.98 25.03 58.67 28.5 58.67 32C58.67 35.5 57.98 38.97 56.64 42.2C55.3 45.44 53.33 48.38 50.86 50.86C48.38 53.33 45.44 55.3 42.2 56.64C38.97 57.98 35.5 58.67 32 58.67C28.5 58.67 25.03 57.98 21.8 56.64C18.56 55.3 15.62 53.33 13.14 50.86C10.67 48.38 8.7 45.44 7.36 42.2C6.02 38.97 5.33 35.5 5.33 32C5.33 17.33 17.25 5.33 32 5.33ZM50.45 42.67L42.59 42.67C41.73 46 40.51 49.2 38.91 52.16C43.81 50.48 47.89 47.07 50.45 42.67ZM38.67 32C38.67 30.19 38.48 28.4 38.24 26.67L25.76 26.67C25.49 28.4 25.33 30.19 25.33 32C25.33 33.81 25.49 35.57 25.76 37.33L38.24 37.33C38.48 35.57 38.67 33.81 38.67 32ZM37.09 42.67L26.91 42.67C28 46.48 29.79 50.03 32 53.23C34.21 50.03 36 46.48 37.09 42.67ZM25.07 11.84C20.19 13.49 16.08 16.91 13.55 21.33L21.33 21.33C22.27 18 23.47 14.8 25.07 11.84ZM25.07 52.16C23.47 49.2 22.27 46 21.33 42.67L13.55 42.67C16.08 47.07 20.19 50.48 25.07 52.16ZM20.37 37.33C20.16 35.57 20 33.81 20 32C20 30.19 20.16 28.43 20.37 26.67L11.36 26.67C10.93 28.37 10.67 30.16 10.67 32C10.67 33.84 10.93 35.63 11.36 37.33L20.37 37.33ZM26.91 21.33L37.09 21.33C36 17.52 34.21 13.95 32 10.75C29.79 13.95 28 17.52 26.91 21.33ZM38.91 11.84C40.51 14.8 41.73 18 42.59 21.33L50.45 21.33C47.89 16.91 43.81 13.52 38.91 11.84ZM52.64 37.33C53.07 35.63 53.33 33.84 53.33 32C53.33 30.16 53.07 28.37 52.64 26.67L43.63 26.67C43.84 28.43 44 30.19 44 32C44 33.81 43.84 35.57 43.63 37.33L52.64 37.33Z" /></svg>