<svg version="1.2" baseProfile="tiny-ps" xmlns="http://www.w3.org/2000/svg" viewBox="0 0 64 64" width="64" height="64"><title>home-svg</title><style>tspan { white-space:pre }.shp0 { fill: none;stroke: #ffffff;stroke-width: 3 } </style><path class="shp0" d="M52.02 24.21L33.61 10.4C33.44 10.27 33.25 10.17 33.04 10.1C32.84 10.03 32.62 10 32.41 10C32.2 10 31.98 10.03 31.78 10.1C31.57 10.17 31.38 10.27 31.21 10.4L12.8 24.21C12.68 24.3 12.56 24.41 12.46 24.53C12.37 24.65 12.28 24.78 12.21 24.92C12.14 25.05 12.09 25.2 12.05 25.35C12.02 25.5 12 25.66 12 25.81L12 52.45C12 52.71 12.05 52.97 12.15 53.22C12.25 53.46 12.4 53.68 12.59 53.86C12.77 54.05 12.99 54.2 13.23 54.3C13.48 54.4 13.74 54.45 14 54.45L25.41 54.45C25.67 54.45 25.93 54.4 26.18 54.3C26.42 54.2 26.64 54.05 26.82 53.86C27.01 53.68 27.16 53.46 27.26 53.22C27.36 52.97 27.41 52.71 27.41 52.45L27.41 44C27.41 43.74 27.46 43.48 27.56 43.23C27.66 42.99 27.81 42.77 28 42.59C28.18 42.4 28.4 42.25 28.64 42.15C28.89 42.05 29.15 42 29.41 42L36.41 42C36.67 42 36.93 42.05 37.18 42.15C37.42 42.25 37.64 42.4 37.82 42.59C38.01 42.77 38.16 42.99 38.26 43.23C38.36 43.48 38.41 43.74 38.41 44L38.41 52.45C38.41 52.71 38.46 52.97 38.56 53.22C38.66 53.46 38.81 53.68 39 53.86C39.18 54.05 39.4 54.2 39.64 54.3C39.89 54.4 40.15 54.45 40.41 54.45L50.82 54.45C51.08 54.45 51.34 54.4 51.59 54.3C51.83 54.2 52.05 54.05 52.23 53.86C52.42 53.68 52.57 53.46 52.67 53.22C52.77 52.97 52.82 52.71 52.82 52.45L52.82 25.81C52.82 25.66 52.8 25.5 52.77 25.35C52.73 25.2 52.68 25.05 52.61 24.92C52.54 24.78 52.45 24.65 52.36 24.53C52.26 24.41 52.14 24.3 52.02 24.21L52.02 24.21Z" /></svg>