<svg version="1.2" baseProfile="tiny-ps" xmlns="http://www.w3.org/2000/svg" viewBox="0 0 64 64" width="64" height="64"><title>forge-icon-svg</title><style>tspan { white-space:pre }.shp0 { fill: none;stroke: #ffffff;stroke-width: 3 } </style><path class="shp0" d="M32 56.86C18.25 56.86 7.14 45.75 7.14 32C7.14 18.25 18.25 7.14 32 7.14C45.75 7.14 56.86 18.25 56.86 32C56.86 45.75 45.75 56.86 32 56.86Z" /><path class="shp0" d="M32 6.84C33.81 8.42 35.45 10.2 36.89 12.13C38.33 14.06 39.56 16.13 40.57 18.32C41.57 20.51 42.34 22.8 42.86 25.15C43.38 27.5 43.65 29.9 43.66 32.31C43.66 48.5 36.38 53.31 32 56.55" /><path class="shp0" d="M32 6.84C30.18 8.42 28.54 10.19 27.1 12.12C25.66 14.05 24.42 16.13 23.42 18.32C22.41 20.51 21.64 22.8 21.12 25.15C20.6 27.5 20.33 29.9 20.31 32.31C20.31 48.5 27.59 53.31 31.97 56.55" /><path class="shp0" d="M10.37 19.75L53.75 19.75" /><path class="shp0" d="M32 6.84L32 56.55" /><path class="shp0" d="M11.05 45.33L52.98 45.33" /><path class="shp0" d="M7.14 32.31L56.86 31.69" /></svg>