<svg version="1.2" baseProfile="tiny-ps" xmlns="http://www.w3.org/2000/svg" viewBox="0 0 64 64" width="64" height="64"><title>play-alt-svg</title><style>tspan { white-space:pre }.shp0 { fill: none;stroke: #ffffff;stroke-width: 3 } </style><path class="shp0" d="M14 53.28L14 10C14 9.82 14.05 9.64 14.14 9.49C14.23 9.34 14.36 9.21 14.52 9.12C14.68 9.04 14.86 9 15.04 9C15.21 9.01 15.39 9.06 15.54 9.16L49.56 30.8C49.7 30.89 49.82 31.02 49.9 31.16C49.98 31.31 50.02 31.47 50.02 31.64C50.02 31.81 49.98 31.97 49.9 32.12C49.82 32.26 49.7 32.39 49.56 32.48L15.51 54.12C15.36 54.21 15.19 54.26 15.01 54.26C14.84 54.26 14.67 54.22 14.51 54.13C14.36 54.05 14.23 53.93 14.14 53.78C14.05 53.63 14 53.45 14 53.28L14 53.28Z" /></svg>