<svg version="1.2" baseProfile="tiny-ps" xmlns="http://www.w3.org/2000/svg" viewBox="0 0 64 64" width="64" height="64"><title>play-svg</title><style>tspan { white-space:pre }.shp0 { fill: none;stroke: #ffffff;stroke-width: 3 } </style><path class="shp0" d="M24.35 42.59L24.35 21.41C24.35 21.32 24.38 21.24 24.42 21.16C24.46 21.09 24.53 21.03 24.6 20.99C24.68 20.94 24.77 20.92 24.85 20.93C24.94 20.93 25.03 20.95 25.1 21L41.77 31.59C41.84 31.63 41.89 31.7 41.93 31.77C41.97 31.84 41.99 31.92 41.99 32C41.99 32.08 41.97 32.16 41.93 32.23C41.89 32.3 41.84 32.37 41.77 32.41L25.1 43C25.03 43.05 24.94 43.07 24.85 43.07C24.77 43.08 24.68 43.06 24.6 43.01C24.53 42.97 24.46 42.91 24.42 42.84C24.38 42.76 24.35 42.68 24.35 42.59Z" /><path class="shp0" d="M32 57.48C17.91 57.48 6.52 46.09 6.52 32C6.52 17.91 17.91 6.52 32 6.52C46.09 6.52 57.48 17.91 57.48 32C57.48 46.09 46.09 57.48 32 57.48Z" /></svg>