<svg version="1.2" baseProfile="tiny-ps" xmlns="http://www.w3.org/2000/svg" viewBox="0 0 64 64" width="64" height="64"><title>settings-svg</title><style>tspan { white-space:pre }.shp0 { fill: none;stroke: #ffffff;stroke-width: 3 } </style><path class="shp0" d="M45 14.67L42.24 16.67C42.17 16.72 42.09 16.77 42.01 16.8C41.93 16.83 41.84 16.85 41.75 16.86C41.67 16.87 41.58 16.87 41.49 16.85C41.41 16.84 41.32 16.82 41.24 16.78L37.65 15.3C37.57 15.27 37.5 15.23 37.43 15.18C37.36 15.12 37.3 15.07 37.25 15C37.19 14.93 37.15 14.86 37.11 14.78C37.08 14.71 37.05 14.62 37.04 14.54L36.38 10.77C36.36 10.65 36.32 10.54 36.26 10.44C36.2 10.33 36.13 10.24 36.04 10.16C35.95 10.09 35.84 10.03 35.73 9.99C35.62 9.95 35.5 9.93 35.38 9.93L30.52 9.93C30.41 9.93 30.29 9.94 30.18 9.98C30.08 10.01 29.97 10.07 29.88 10.14C29.79 10.21 29.71 10.29 29.65 10.39C29.59 10.48 29.55 10.59 29.52 10.7L28.59 14.42C28.57 14.49 28.55 14.56 28.51 14.62C28.48 14.69 28.44 14.75 28.4 14.8C28.35 14.86 28.3 14.91 28.24 14.95C28.19 15 28.12 15.04 28.06 15.07L24.76 16.73C24.68 16.77 24.6 16.8 24.51 16.81C24.42 16.83 24.34 16.83 24.25 16.82C24.16 16.82 24.08 16.8 23.99 16.77C23.91 16.74 23.83 16.7 23.76 16.65L20.76 14.52C20.66 14.45 20.55 14.4 20.44 14.37C20.32 14.33 20.2 14.32 20.08 14.33C19.96 14.35 19.85 14.38 19.74 14.43C19.63 14.48 19.53 14.55 19.45 14.64L15.8 18.38C15.72 18.46 15.65 18.55 15.6 18.66C15.55 18.76 15.52 18.87 15.51 18.99C15.5 19.1 15.51 19.22 15.53 19.33C15.56 19.44 15.61 19.54 15.67 19.64L17.54 22.52C17.58 22.58 17.62 22.65 17.64 22.73C17.67 22.8 17.69 22.88 17.7 22.95C17.7 23.03 17.7 23.11 17.69 23.18C17.68 23.26 17.67 23.34 17.64 23.41L16.34 27C16.31 27.08 16.28 27.15 16.23 27.22C16.19 27.28 16.14 27.34 16.08 27.4C16.02 27.45 15.95 27.5 15.88 27.54C15.81 27.58 15.74 27.61 15.66 27.63L11.81 28.69C11.7 28.72 11.6 28.77 11.51 28.83C11.41 28.89 11.33 28.97 11.27 29.06C11.2 29.15 11.15 29.25 11.11 29.36C11.08 29.47 11.07 29.58 11.07 29.69L11.07 34.43C11.07 34.55 11.09 34.66 11.12 34.77C11.16 34.88 11.22 34.98 11.29 35.07C11.36 35.17 11.45 35.24 11.55 35.3C11.65 35.36 11.76 35.41 11.87 35.43L15.77 36.23C15.85 36.25 15.92 36.27 16 36.3C16.07 36.34 16.14 36.38 16.2 36.43C16.26 36.48 16.32 36.53 16.37 36.6C16.42 36.66 16.46 36.73 16.49 36.8L17.91 39.95C17.94 40.02 17.97 40.1 17.98 40.18C18 40.26 18 40.34 18 40.42C17.99 40.5 17.98 40.57 17.96 40.65C17.93 40.73 17.9 40.8 17.86 40.87L15.73 44.5C15.67 44.6 15.63 44.7 15.61 44.81C15.59 44.92 15.58 45.04 15.6 45.15C15.61 45.26 15.65 45.37 15.7 45.47C15.75 45.57 15.82 45.66 15.9 45.74L19.32 49C19.4 49.08 19.5 49.15 19.61 49.2C19.72 49.24 19.83 49.27 19.95 49.28C20.07 49.29 20.18 49.28 20.3 49.24C20.41 49.21 20.52 49.16 20.61 49.09L23.49 47C23.56 46.95 23.64 46.91 23.72 46.88C23.8 46.84 23.89 46.82 23.98 46.82C24.06 46.81 24.15 46.81 24.24 46.82C24.33 46.84 24.41 46.86 24.49 46.9L28.23 48.57C28.31 48.6 28.38 48.65 28.44 48.7C28.51 48.75 28.57 48.8 28.62 48.87C28.67 48.94 28.71 49.01 28.75 49.08C28.78 49.16 28.81 49.24 28.82 49.32L29.48 53.11C29.5 53.23 29.54 53.34 29.6 53.44C29.66 53.55 29.73 53.64 29.82 53.72C29.91 53.79 30.02 53.85 30.13 53.89C30.24 53.93 30.36 53.95 30.48 53.95L35.37 53.95C35.49 53.95 35.61 53.93 35.72 53.89C35.84 53.85 35.94 53.79 36.03 53.71C36.12 53.63 36.2 53.54 36.26 53.43C36.31 53.32 36.35 53.21 36.37 53.09L36.95 49.09C36.96 49.01 36.98 48.93 37.02 48.85C37.05 48.77 37.09 48.7 37.14 48.63C37.19 48.56 37.25 48.5 37.32 48.45C37.38 48.4 37.45 48.35 37.53 48.32L41.11 46.7C41.19 46.66 41.27 46.64 41.36 46.62C41.45 46.61 41.53 46.6 41.62 46.61C41.71 46.62 41.8 46.64 41.88 46.67C41.96 46.7 42.04 46.74 42.11 46.79L45.25 48.91C45.35 48.98 45.46 49.03 45.57 49.05C45.69 49.08 45.81 49.09 45.93 49.08C46.05 49.06 46.16 49.03 46.27 48.97C46.37 48.92 46.47 48.85 46.55 48.76L50 45.06C50.08 44.98 50.14 44.88 50.19 44.77C50.24 44.67 50.27 44.56 50.27 44.44C50.28 44.33 50.27 44.21 50.24 44.1C50.21 43.99 50.16 43.88 50.09 43.79L48.01 40.79C47.96 40.72 47.92 40.64 47.89 40.56C47.86 40.48 47.84 40.39 47.83 40.3C47.82 40.21 47.83 40.13 47.84 40.04C47.86 39.95 47.88 39.87 47.92 39.79L49.4 36.36C49.43 36.29 49.47 36.22 49.52 36.15C49.57 36.09 49.62 36.03 49.68 35.98C49.74 35.93 49.81 35.88 49.88 35.85C49.96 35.81 50.03 35.79 50.11 35.77L53.77 35C53.88 34.98 53.99 34.93 54.09 34.87C54.19 34.81 54.28 34.74 54.35 34.64C54.42 34.55 54.48 34.45 54.52 34.34C54.55 34.23 54.57 34.12 54.57 34L54.57 29.42C54.57 29.3 54.55 29.19 54.52 29.08C54.48 28.97 54.42 28.87 54.35 28.78C54.28 28.68 54.19 28.61 54.09 28.55C53.99 28.49 53.88 28.44 53.77 28.42L50.05 27.64C49.97 27.62 49.89 27.6 49.81 27.56C49.74 27.52 49.67 27.48 49.61 27.42C49.54 27.37 49.49 27.31 49.44 27.24C49.39 27.17 49.35 27.1 49.32 27.02L47.87 23.37C47.84 23.29 47.82 23.21 47.81 23.13C47.8 23.05 47.8 22.97 47.81 22.89C47.82 22.8 47.84 22.72 47.87 22.65C47.89 22.57 47.93 22.5 47.98 22.43L50.13 19.29C50.2 19.19 50.25 19.09 50.28 18.97C50.31 18.86 50.31 18.74 50.3 18.62C50.29 18.5 50.26 18.39 50.21 18.28C50.15 18.18 50.09 18.08 50 18L46.29 14.75C46.21 14.67 46.11 14.6 46 14.56C45.89 14.51 45.78 14.48 45.66 14.47C45.54 14.47 45.42 14.48 45.31 14.51C45.2 14.55 45.09 14.6 45 14.67Z" /><path class="shp0" d="M32.82 41.88C27.32 41.88 22.88 37.44 22.88 31.94C22.88 26.44 27.32 22 32.82 22C38.32 22 42.76 26.44 42.76 31.94C42.76 37.44 38.32 41.88 32.82 41.88Z" /></svg>