<svg version="1.2" baseProfile="tiny-ps" xmlns="http://www.w3.org/2000/svg" viewBox="0 0 64 64" width="64" height="64"><title>trash-svg</title><style>tspan { white-space:pre }.shp0 { fill: none;stroke: #ffffff;stroke-width: 3 } </style><path class="shp0" d="M45.49 54.87L18.49 54.87C18.36 54.87 18.23 54.84 18.11 54.79C17.99 54.74 17.88 54.67 17.78 54.58C17.69 54.48 17.62 54.37 17.57 54.25C17.52 54.13 17.49 54 17.49 53.87L15.49 17.87L48.46 17.87L46.46 53.87C46.46 54 46.44 54.13 46.39 54.25C46.34 54.37 46.27 54.47 46.18 54.57C46.09 54.66 45.98 54.73 45.86 54.79C45.75 54.84 45.62 54.87 45.49 54.87L45.49 54.87Z" /><path class="shp0" d="M51 17.86L13 17.86C12.72 17.86 12.5 17.7 12.5 17.51L13.43 13.16C13.45 13.11 13.48 13.07 13.51 13.03C13.55 12.99 13.59 12.95 13.63 12.93C13.68 12.9 13.72 12.88 13.77 12.87C13.83 12.86 13.88 12.85 13.93 12.86L50.07 12.86C50.12 12.85 50.17 12.86 50.23 12.87C50.28 12.88 50.32 12.9 50.37 12.93C50.41 12.95 50.45 12.99 50.49 13.03C50.52 13.07 50.55 13.11 50.57 13.16L51.5 17.51C51.5 17.7 51.28 17.86 51 17.86Z" /><path class="shp0" d="M24 23.44L24 48.44" /><path class="shp0" d="M32 23.44L32 48.44" /><path class="shp0" d="M40 23.44L40 48.44" /><path class="shp0" d="M25.73 12.86L25.73 7.57C25.73 7.44 25.76 7.31 25.81 7.19C25.86 7.07 25.93 6.96 26.02 6.86C26.12 6.77 26.23 6.7 26.35 6.65C26.47 6.6 26.6 6.57 26.73 6.57L37.27 6.57C37.4 6.57 37.53 6.6 37.65 6.65C37.77 6.7 37.88 6.77 37.98 6.86C38.07 6.96 38.14 7.07 38.19 7.19C38.24 7.31 38.27 7.44 38.27 7.57L38.27 12.86" /></svg>