<svg version="1.2" baseProfile="tiny-ps" xmlns="http://www.w3.org/2000/svg" viewBox="0 0 64 64" width="64" height="64"><title>warning-svg</title><style>tspan { white-space:pre }.shp0 { fill: none;stroke: #ffffff;stroke-width: 3 } </style><path class="shp0" d="M56.15 53.91L7.85 53.91C7.73 53.91 7.62 53.88 7.52 53.82C7.41 53.76 7.33 53.68 7.27 53.58C7.21 53.48 7.18 53.36 7.19 53.24C7.19 53.13 7.22 53.01 7.28 52.91L31.43 10.41C31.49 10.31 31.57 10.22 31.67 10.16C31.77 10.1 31.88 10.07 32 10.07C32.12 10.07 32.23 10.1 32.33 10.16C32.43 10.22 32.51 10.31 32.57 10.41L56.72 52.91C56.78 53.01 56.81 53.13 56.81 53.24C56.82 53.36 56.79 53.48 56.73 53.58C56.67 53.68 56.59 53.76 56.48 53.82C56.38 53.88 56.27 53.91 56.15 53.91Z" /><path class="shp0" d="M32 46.77L32 47.44" /><path class="shp0" d="M32 24.02L32 41.45" /></svg>