<svg version="1.2" baseProfile="tiny-ps" xmlns="http://www.w3.org/2000/svg" viewBox="0 0 24 24" width="24" height="24"><title>cards-playing-outline-svg</title><style>tspan { white-space:pre }.shp0 { fill: #000000 } </style><path fill-rule="evenodd" class="shp0" d="M11.19 2.25C11.97 2.26 12.71 2.73 13 3.5L18 15.45C18.09 15.71 18.14 16 18.13 16.25C18.11 17 17.65 17.74 16.9 18.05L9.53 21.1C9.27 21.22 9 21.25 8.74 21.25C7.97 21.23 7.24 20.77 6.93 20L1.97 8.05C1.55 7.04 2.04 5.87 3.06 5.45L10.42 2.4C10.67 2.31 10.93 2.25 11.19 2.25ZM14.67 2.25L16.12 2.25C16.38 2.25 16.64 2.3 16.89 2.4C17.13 2.5 17.35 2.65 17.53 2.84C17.72 3.02 17.87 3.24 17.97 3.48C18.07 3.73 18.12 3.99 18.12 4.25L18.12 10.6L14.67 2.25ZM20.13 3.79L21.47 4.36C22.5 4.78 22.97 5.94 22.56 6.96L20.13 12.82L20.13 3.79ZM8.21 12.54L11.44 14.96L11.88 10.95L8.65 8.54L8.21 12.54Z" /></svg>