<svg version="1.2" baseProfile="tiny-ps" xmlns="http://www.w3.org/2000/svg" viewBox="0 0 24 24" width="24" height="24"><title>home-circle-svg</title><style>tspan { white-space:pre }.shp0 { fill: #000000 } </style><path fill-rule="evenodd" class="shp0" d="M22 12C22.04 14.66 21 17.22 19.06 19.07C17.21 21 14.66 22.04 12 22C9.34 22.04 6.78 21 4.93 19.06C3 17.21 1.96 14.66 2 12C1.96 9.34 3 6.78 4.94 4.93C6.79 3 9.34 1.96 12 2C14.66 1.96 17.22 3 19.07 4.93C21 6.78 22.04 9.34 22 12ZM15.71 7.08L14.53 8.25C15.93 9.11 16.88 10.64 16.88 12.41C16.88 13.05 16.75 13.68 16.5 14.27C16.26 14.86 15.9 15.4 15.45 15.85C14.99 16.31 14.46 16.67 13.87 16.91C13.27 17.16 12.64 17.28 12 17.28C11.36 17.28 10.73 17.16 10.13 16.91C9.54 16.67 9.01 16.31 8.55 15.85C8.1 15.4 7.74 14.86 7.5 14.27C7.25 13.68 7.13 13.05 7.13 12.41C7.13 10.64 8.07 9.11 9.47 8.25L8.3 7.08C6.61 8.25 5.5 10.2 5.5 12.41C5.5 13.26 5.67 14.11 5.99 14.89C6.32 15.68 6.8 16.4 7.4 17C8.01 17.61 8.72 18.08 9.51 18.41C10.3 18.74 11.15 18.91 12 18.91C12.85 18.91 13.7 18.74 14.49 18.41C15.28 18.08 15.99 17.61 16.6 17C17.2 16.4 17.68 15.68 18.01 14.89C18.33 14.11 18.5 13.26 18.5 12.41C18.5 10.2 17.4 8.25 15.71 7.08ZM12.81 5.09L11.19 5.09L11.19 13.22L12.81 13.22L12.81 5.09Z" /></svg>