<svg version="1.2" baseProfile="tiny-ps" xmlns="http://www.w3.org/2000/svg" viewBox="0 0 24 24" width="24" height="24"><title>timeline-check-outline-svg</title><style>tspan { white-space:pre }.shp0 { fill: #000000 } </style><path fill-rule="evenodd" class="shp0" d="M24 6L24 18C24 19.11 23.11 20 22 20L10 20C8.9 20 8 19.11 8 18L8 14L6 12L8 10L8 6C8 4.89 8.9 4 10 4L22 4C23.11 4 24 4.89 24 6ZM22 6L10 6L10 18L22 18L22 6ZM2 16L4 16L4 22L2 22L2 16ZM5 12C5 13.11 4.11 14 3 14C1.9 14 1 13.11 1 12C1 10.9 1.9 10 3 10C4.11 10 5 10.9 5 12ZM15 15.08L12.25 12.08L13.41 10.92L15 12.5L18.59 8.92L19.75 10.33L15 15.08Z" /></svg>