<svg version="1.2" baseProfile="tiny-ps" xmlns="http://www.w3.org/2000/svg" viewBox="0 0 24 24" width="24" height="24"><title>timeline-remove-svg</title><style>tspan { white-space:pre }.shp0 { fill: #000000 } </style><path fill-rule="evenodd" class="shp0" d="M4 8L2 8L2 2L4 2L4 8ZM5 12C5 13.11 4.11 14 3 14C1.9 14 1 13.11 1 12C1 10.9 1.9 10 3 10C4.11 10 5 10.9 5 12ZM24 6L24 18C24 19.11 23.11 20 22 20L10 20C8.9 20 8 19.11 8 18L8 14L6 12L8 10L8 6C8 4.89 8.9 4 10 4L22 4C23.11 4 24 4.89 24 6ZM17.41 12L19.53 9.88L18.12 8.47L16 10.59L13.88 8.47L12.47 9.88L14.59 12L12.47 14.12L13.88 15.53L16 13.41L18.12 15.53L19.53 14.12L17.41 12Z" /></svg>